<svg width="87" height="86" viewBox="0 0 87 86" fill="none" xmlns="http://www.w3.org/2000/svg">
<rect x="0.5" width="86" height="86" rx="43" fill="#222934"/>
<g clip-path="url(#clip0_7866_56257)">
<path fill-rule="evenodd" clip-rule="evenodd" d="M55.5 33.3333H31.5C30.5795 33.3333 29.8333 34.0795 29.8333 35V51C29.8333 51.9205 30.5795 52.6667 31.5 52.6667H55.5C56.4205 52.6667 57.1667 51.9205 57.1667 51V35C57.1667 34.0795 56.4205 33.3333 55.5 33.3333ZM31.5 31C29.2909 31 27.5 32.7909 27.5 35V51C27.5 53.2091 29.2909 55 31.5 55H55.5C57.7091 55 59.5 53.2091 59.5 51V35C59.5 32.7909 57.7091 31 55.5 31H31.5Z" fill="white"/>
<path fill-rule="evenodd" clip-rule="evenodd" d="M31.6667 49.6667C31.6667 49.0223 32.189 48.5 32.8333 48.5H36.8333C37.4777 48.5 38 49.0223 38 49.6667C38 50.311 37.4777 50.8333 36.8333 50.8333H32.8333C32.189 50.8333 31.6667 50.311 31.6667 49.6667Z" fill="white"/>
<path fill-rule="evenodd" clip-rule="evenodd" d="M31.6667 37.6667C31.6667 37.0223 32.189 36.5 32.8333 36.5H54.1667C54.811 36.5 55.3333 37.0223 55.3333 37.6667C55.3333 38.311 54.811 38.8333 54.1667 38.8333H32.8333C32.189 38.8333 31.6667 38.311 31.6667 37.6667Z" fill="white"/>
</g>
<defs>
<clipPath id="clip0_7866_56257">
<rect width="32" height="32" fill="white" transform="translate(27.5 27)"/>
</clipPath>
</defs>
</svg>
