<svg width="87" height="86" viewBox="0 0 87 86" fill="none" xmlns="http://www.w3.org/2000/svg">
<rect x="0.5" width="86" height="86" rx="43" fill="#222934"/>
<g clip-path="url(#clip0_7866_56263)">
<path fill-rule="evenodd" clip-rule="evenodd" d="M58.1667 31.1667C58.811 31.1667 59.3334 31.689 59.3334 32.3333V40.3333C59.3334 40.9777 58.811 41.5 58.1667 41.5H50.1667C49.5224 41.5 49 40.9777 49 40.3333C49 39.689 49.5224 39.1667 50.1667 39.1667H57V32.3333C57 31.689 57.5224 31.1667 58.1667 31.1667Z" fill="white"/>
<path fill-rule="evenodd" clip-rule="evenodd" d="M27.6667 45.6667C27.6667 45.0223 28.189 44.5 28.8334 44.5H36.8334C37.4777 44.5 38 45.0223 38 45.6667C38 46.311 37.4777 46.8333 36.8334 46.8333H30V53.6667C30 54.311 29.4777 54.8333 28.8334 54.8333C28.189 54.8333 27.6667 54.311 27.6667 53.6667V45.6667Z" fill="white"/>
<path fill-rule="evenodd" clip-rule="evenodd" d="M46.5028 32.5964C44.7448 32.0879 42.8867 32.0331 41.1019 32.4369C39.317 32.8408 37.6635 33.6902 36.2957 34.9059C34.9279 36.1216 33.8903 37.664 33.2799 39.3892C33.0649 39.9966 32.3983 40.3148 31.7908 40.0998C31.1834 39.8849 30.8652 39.2182 31.0802 38.6108C31.8222 36.5141 33.0832 34.6394 34.7456 33.1619C36.408 31.6843 38.4176 30.6519 40.5869 30.1611C42.7563 29.6703 45.0146 29.737 47.1511 30.355C49.2817 30.9712 51.222 32.1157 52.7919 33.682L58.9656 39.4831C59.4352 39.9243 59.4581 40.6627 59.0169 41.1322C58.5757 41.6018 57.8373 41.6248 57.3678 41.1835L51.1811 35.3702C51.1722 35.3619 51.1635 35.3534 51.1549 35.3448C49.8612 34.0504 48.2607 33.1049 46.5028 32.5964ZM27.9831 44.8678C28.4244 44.3982 29.1627 44.3752 29.6323 44.8165L35.8189 50.6298C35.8278 50.6381 35.8366 50.6466 35.8452 50.6552C37.1389 51.9496 38.7393 52.8951 40.4973 53.4036C42.2552 53.9121 44.1133 53.9669 45.8982 53.5631C47.6831 53.1592 49.3365 52.3098 50.7043 51.0941C52.0722 49.8784 53.1097 48.336 53.7202 46.6108C53.9351 46.0034 54.6018 45.6852 55.2092 45.9002C55.8166 46.1151 56.1348 46.7818 55.9199 47.3892C55.1779 49.4859 53.9169 51.3605 52.2545 52.8381C50.592 54.3157 48.5824 55.3481 46.4131 55.8389C44.2438 56.3297 41.9855 56.263 39.8489 55.645C37.7184 55.0288 35.7781 53.8843 34.2081 52.318L28.0345 46.5169C27.5649 46.0757 27.5419 45.3373 27.9831 44.8678Z" fill="white"/>
</g>
<defs>
<clipPath id="clip0_7866_56263">
<rect width="32" height="32" fill="white" transform="translate(27.5 27)"/>
</clipPath>
</defs>
</svg>
