<svg width="87" height="86" viewBox="0 0 87 86" fill="none" xmlns="http://www.w3.org/2000/svg">
<rect x="0.5" width="86" height="86" rx="43" fill="#222934"/>
<path fill-rule="evenodd" clip-rule="evenodd" d="M31.4658 33.3226C31.3661 33.3226 31.2704 33.3634 31.1999 33.436C31.1293 33.5086 31.0897 33.607 31.0897 33.7097V49.5806H31.9976C32.4887 47.7934 34.0851 46.4839 35.9786 46.4839C37.8722 46.4839 39.4686 47.7934 39.9596 49.5806H43.876V33.3226H31.4658ZM46.1325 32.5484V32.1613C46.1325 31.5199 45.6273 31 45.0043 31H31.4658C30.7676 31 30.098 31.2855 29.6043 31.7936C29.1107 32.3018 28.8333 32.991 28.8333 33.7097V50.7419C28.8333 51.3833 29.3384 51.9032 29.9615 51.9032H31.9976C32.4887 53.6905 34.0851 55 35.9786 55C37.8722 55 39.4686 53.6905 39.9596 51.9032H47.0403C47.5314 53.6905 49.1278 55 51.0213 55C52.9149 55 54.5113 53.6905 55.0024 51.9032H57.0384C57.6615 51.9032 58.1666 51.3833 58.1666 50.7419V41.4516C58.1666 41.2411 58.1111 41.0346 58.0059 40.8541L53.493 33.1122C53.2892 32.7624 52.9219 32.5484 52.5256 32.5484H46.1325ZM46.1325 34.871V40.2903H55.0458L51.8868 34.871H46.1325ZM55.9102 42.6129H46.1325V49.5806H47.0403C47.5314 47.7934 49.1278 46.4839 51.0213 46.4839C52.9149 46.4839 54.5113 47.7934 55.0024 49.5806H55.9102V42.6129ZM35.9786 48.8065C34.9401 48.8065 34.0983 49.673 34.0983 50.7419C34.0983 51.8109 34.9401 52.6774 35.9786 52.6774C37.0171 52.6774 37.859 51.8109 37.859 50.7419C37.859 49.673 37.0171 48.8065 35.9786 48.8065ZM51.0213 48.8065C49.9829 48.8065 49.141 49.673 49.141 50.7419C49.141 51.8109 49.9829 52.6774 51.0213 52.6774C52.0598 52.6774 52.9017 51.8109 52.9017 50.7419C52.9017 49.673 52.0598 48.8065 51.0213 48.8065Z" fill="white"/>
</svg>
