<svg width="87" height="86" viewBox="0 0 87 86" fill="none" xmlns="http://www.w3.org/2000/svg">
<rect x="0.5" width="86" height="86" rx="43" fill="#222934"/>
<g clip-path="url(#clip0_7866_56269)">
<path d="M59.3848 52.1152L57.5263 46.7063C58.4221 44.8749 58.8956 42.8381 58.8988 40.7888C58.9043 37.2255 57.5256 33.8563 55.0167 31.3019C52.5074 28.747 49.1635 27.3089 45.601 27.2524C41.9069 27.194 38.4347 28.5992 35.8242 31.2096C33.3071 33.7266 31.911 37.0449 31.8668 40.5909C29.3859 42.4588 27.9216 45.371 27.9264 48.4816C27.9287 49.9372 28.2563 51.3842 28.8771 52.6926L27.5969 56.4181C27.3769 57.0585 27.5376 57.7539 28.0165 58.2328C28.3535 58.5699 28.7978 58.7493 29.2548 58.7493C29.447 58.7493 29.6415 58.7175 29.8312 58.6524L33.5568 57.3722C34.8652 57.993 36.3122 58.3206 37.7678 58.3229C37.773 58.3229 37.778 58.3229 37.7833 58.3229C40.9402 58.3228 43.8745 56.8207 45.7356 54.279C47.6723 54.228 49.5885 53.7592 51.3208 52.9118L56.7298 54.7704C56.9552 54.8478 57.1863 54.8856 57.4148 54.8856C57.9578 54.8856 58.4858 54.6723 58.8863 54.2717C59.4553 53.7027 59.6463 52.8763 59.3848 52.1152ZM37.7832 56.4182C37.7791 56.4182 37.7748 56.4182 37.7707 56.4182C36.4823 56.4162 35.2029 56.0986 34.071 55.4997C33.8382 55.3767 33.565 55.3553 33.3161 55.4408L29.4959 56.7535L30.8086 52.9334C30.8941 52.6845 30.8728 52.4112 30.7497 52.1785C30.1508 51.0465 29.8332 49.7671 29.8312 48.4787C29.828 46.4063 30.6342 44.442 32.044 42.9711C32.5045 45.7783 33.8425 48.3652 35.9163 50.4022C37.9749 52.4242 40.5625 53.7115 43.3545 54.1324C41.8803 55.5855 39.893 56.4182 37.7832 56.4182ZM57.5393 52.9248C57.4851 52.979 57.4209 52.9938 57.3486 52.9689L51.5581 50.9792C51.4576 50.9446 51.3529 50.9275 51.2487 50.9275C51.095 50.9275 50.9419 50.9647 50.8033 51.038C49.15 51.9127 47.2817 52.3765 45.4004 52.3794C45.3942 52.3794 45.3885 52.3794 45.3824 52.3794C39.0784 52.3794 33.8713 47.2585 33.7715 40.9561C33.7211 37.782 34.9285 34.7989 37.1711 32.5564C39.4137 30.3138 42.3972 29.1069 45.5709 29.1569C51.8794 29.2569 57.0038 34.4736 56.994 40.7858C56.9911 42.6672 56.5273 44.5355 55.6527 46.1887C55.5296 46.4214 55.5083 46.6946 55.5938 46.9436L57.5835 52.7341C57.6083 52.8066 57.5934 52.8708 57.5393 52.9248Z" fill="white"/>
<path d="M51.0558 35.7195H39.7083C39.1823 35.7195 38.7559 36.1459 38.7559 36.6719C38.7559 37.1979 39.1823 37.6243 39.7083 37.6243H51.0558C51.5818 37.6243 52.0082 37.1978 52.0082 36.6719C52.0082 36.1459 51.5818 35.7195 51.0558 35.7195Z" fill="white"/>
<path d="M51.0558 39.6364H39.7083C39.1823 39.6364 38.7559 40.0629 38.7559 40.5888C38.7559 41.1148 39.1823 41.5412 39.7083 41.5412H51.0558C51.5818 41.5412 52.0082 41.1148 52.0082 40.5888C52.0082 40.0629 51.5818 39.6364 51.0558 39.6364Z" fill="white"/>
<path d="M46.6878 43.5533H39.7082C39.1822 43.5533 38.7558 43.9797 38.7558 44.5056C38.7558 45.0316 39.1823 45.458 39.7082 45.458H46.6877C47.2137 45.458 47.6401 45.0316 47.6401 44.5056C47.6401 43.9797 47.2138 43.5533 46.6878 43.5533Z" fill="white"/>
</g>
<defs>
<clipPath id="clip0_7866_56269">
<rect width="32" height="32" fill="white" transform="translate(27.5 27)"/>
</clipPath>
</defs>
</svg>
